<svg width="127" height="58" viewBox="0 0 127 58" fill="none" xmlns="http://www.w3.org/2000/svg">
<mask id="path-1-outside-1_41_12" maskUnits="userSpaceOnUse" x="15" y="14" width="110" height="32" fill="black">
<rect fill="white" x="15" y="14" width="110" height="32"/>
<path d="M24.432 16.672C25.776 15.968 27.2053 15.616 28.72 15.616C30.2347 15.616 31.4507 15.8827 32.368 16.416C33.3067 16.928 33.776 17.664 33.776 18.624C33.776 19.1573 33.6693 19.6587 33.456 20.128C33.264 20.576 33.0827 20.896 32.912 21.088C32.7413 21.28 32.4853 21.5253 32.144 21.824C31.6107 20.608 30.9493 19.68 30.16 19.04C29.392 18.4 28.4213 18.08 27.248 18.08C26.0747 18.08 25.04 18.432 24.144 19.136C23.2693 19.84 22.576 20.7147 22.064 21.76C21.5733 22.8053 21.1573 23.9787 20.816 25.28C20.24 27.4773 19.952 29.6427 19.952 31.776C19.952 35.2107 20.5067 37.8453 21.616 39.68C22.7253 41.5147 24.3787 42.432 26.576 42.432C27.7707 42.432 28.8267 42.0587 29.744 41.312C30.6827 40.5653 31.3973 39.4773 31.888 38.048C32.4213 38.6453 32.688 39.3813 32.688 40.256C32.688 41.3653 31.9627 42.3787 30.512 43.296C29.0827 44.2133 27.472 44.672 25.68 44.672C22.5867 44.672 20.2827 43.616 18.768 41.504C17.2533 39.392 16.496 36.64 16.496 33.248C16.496 29.792 17.1573 26.5707 18.48 23.584C19.9307 20.2987 21.9147 17.9947 24.432 16.672ZM33.7888 39.104C33.7888 37.9307 33.9808 36.096 34.3648 33.6C34.7701 31.104 34.9728 28.96 34.9728 27.168C34.9728 25.376 34.7488 24.0533 34.3008 23.2C34.8341 22.7093 35.4741 22.464 36.2208 22.464C37.7994 22.464 38.5888 23.2747 38.5888 24.896C38.5888 25.4293 38.3328 27.4773 37.8208 31.04C37.3301 34.6027 37.0848 37.2267 37.0848 38.912C37.0848 40.5973 37.5968 41.44 38.6208 41.44C39.4741 41.44 40.5088 40.4373 41.7248 38.432C42.9408 36.4267 43.9754 34.176 44.8288 31.68C45.6821 29.1627 46.1088 27.3067 46.1088 26.112C46.1088 24.896 45.9488 23.9253 45.6288 23.2C46.1834 22.7093 46.8341 22.464 47.5808 22.464C49.1594 22.464 49.9488 23.2747 49.9488 24.896C49.9488 26.0693 49.7461 27.872 49.3408 30.304C48.9354 32.736 48.7328 34.6453 48.7328 36.032C48.7328 39.0613 49.2341 41.3973 50.2368 43.04C49.5968 43.8293 48.8714 44.224 48.0608 44.224C46.2261 44.224 45.3088 41.9733 45.3088 37.472C45.3088 37.0453 45.4368 35.648 45.6928 33.28C43.8794 37.568 42.3648 40.5013 41.1488 42.08C40.6368 42.7627 40.0608 43.3387 39.4208 43.808C38.8021 44.2773 38.1941 44.512 37.5968 44.512C35.0581 44.512 33.7888 42.7093 33.7888 39.104ZM55.637 44.224C53.973 44.224 53.141 42.816 53.141 40C53.141 38.8267 53.365 36.8427 53.813 34.048C54.261 31.2533 54.485 28.96 54.485 27.168C54.485 25.376 54.261 24.0533 53.813 23.2C54.3463 22.7093 54.997 22.464 55.765 22.464C57.3223 22.464 58.101 23.2747 58.101 24.896C58.101 25.472 57.9623 26.656 57.685 28.448C57.429 30.24 57.2583 31.4667 57.173 32.128C58.325 29.0987 59.6157 26.6773 61.045 24.864C62.4957 23.0293 63.6903 22.112 64.629 22.112C65.1623 22.112 65.557 22.368 65.813 22.88C66.0903 23.392 66.229 23.9147 66.229 24.448C66.229 24.9813 66.165 25.5253 66.037 26.08C65.717 26.016 65.4183 25.984 65.141 25.984C63.7757 25.984 62.3997 26.784 61.013 28.384C59.6477 29.984 58.5703 31.744 57.781 33.664C57.013 35.584 56.629 37.1733 56.629 38.432C56.629 40.6507 57.0343 42.1973 57.845 43.072C57.1837 43.84 56.4477 44.224 55.637 44.224ZM71.9385 24.352C71.0425 24.352 70.3278 24.5867 69.7945 25.056C69.2612 25.504 68.9945 26.1227 68.9945 26.912C68.9945 27.7013 69.2505 28.3947 69.7625 28.992C70.2958 29.5893 71.1918 30.4 72.4505 31.424C73.7092 32.448 74.4878 33.088 74.7865 33.344C76.4932 34.752 77.3465 36.3947 77.3465 38.272C77.3465 40.1493 76.7278 41.6427 75.4905 42.752C74.2532 43.8613 72.4932 44.416 70.2105 44.416C68.5038 44.416 67.0745 44.096 65.9225 43.456C64.7918 42.7947 64.2265 41.8453 64.2265 40.608C64.2265 39.7333 64.7385 38.784 65.7625 37.76C66.1252 39.296 66.7758 40.448 67.7145 41.216C68.6745 41.9627 69.6665 42.336 70.6905 42.336C71.7358 42.336 72.5892 42.08 73.2505 41.568C73.9332 41.056 74.2745 40.384 74.2745 39.552C74.2745 38.8267 74.1358 38.2613 73.8585 37.856C73.6025 37.4293 73.3998 37.12 73.2505 36.928C73.1012 36.7147 72.8132 36.4267 72.3865 36.064C71.9598 35.68 71.6292 35.4027 71.3945 35.232C71.1812 35.04 70.7545 34.6987 70.1145 34.208C69.4745 33.696 68.9945 33.312 68.6745 33.056C66.9038 31.6693 66.0185 30.0053 66.0185 28.064C66.0185 26.1227 66.6798 24.6507 68.0025 23.648C69.3252 22.624 71.1385 22.112 73.4425 22.112C76.3225 22.112 77.7625 23.104 77.7625 25.088C77.7625 26.0267 77.2718 26.88 76.2905 27.648C75.3945 25.4507 73.9438 24.352 71.9385 24.352ZM87.7345 24.512C86.7318 24.512 85.8572 24.896 85.1105 25.664C84.3852 26.4107 83.8412 27.36 83.4785 28.512C82.7958 30.6453 82.4545 32.8107 82.4545 35.008C82.4545 37.184 82.9025 38.9227 83.7985 40.224C84.6945 41.5253 85.9425 42.176 87.5425 42.176C88.5665 42.176 89.4518 41.8027 90.1985 41.056C90.9452 40.288 91.4998 39.328 91.8625 38.176C92.5452 35.9787 92.8865 33.8027 92.8865 31.648C92.8865 29.472 92.4278 27.744 91.5105 26.464C90.6145 25.1627 89.3558 24.512 87.7345 24.512ZM85.9745 44.544C83.7558 44.544 82.0385 43.712 80.8225 42.048C79.6065 40.384 78.9985 38.272 78.9985 35.712C78.9985 34.1547 79.2438 32.5867 79.7345 31.008C80.2252 29.408 80.8972 27.9467 81.7505 26.624C82.6038 25.28 83.7025 24.192 85.0465 23.36C86.3905 22.528 87.8412 22.112 89.3985 22.112C91.6172 22.112 93.3238 22.944 94.5185 24.608C95.7345 26.272 96.3425 28.384 96.3425 30.944C96.3425 33.568 95.7452 36.0533 94.5505 38.4C93.2492 40.9387 91.5745 42.72 89.5265 43.744C88.4172 44.2773 87.2332 44.544 85.9745 44.544ZM101.582 44.224C99.918 44.224 99.086 42.816 99.086 40C99.086 38.8267 99.31 36.8427 99.758 34.048C100.206 31.2533 100.43 28.96 100.43 27.168C100.43 25.376 100.206 24.0533 99.758 23.2C100.291 22.7093 100.942 22.464 101.71 22.464C103.267 22.464 104.046 23.2747 104.046 24.896C104.046 25.472 103.907 26.656 103.63 28.448C103.374 30.24 103.203 31.4667 103.118 32.128C104.27 29.0987 105.561 26.6773 106.99 24.864C108.441 23.0293 109.635 22.112 110.574 22.112C111.107 22.112 111.502 22.368 111.758 22.88C112.035 23.392 112.174 23.9147 112.174 24.448C112.174 24.9813 112.11 25.5253 111.982 26.08C111.662 26.016 111.363 25.984 111.086 25.984C109.721 25.984 108.345 26.784 106.958 28.384C105.593 29.984 104.515 31.744 103.726 33.664C102.958 35.584 102.574 37.1733 102.574 38.432C102.574 40.6507 102.979 42.1973 103.79 43.072C103.129 43.84 102.393 44.224 101.582 44.224ZM117.884 24.352C116.987 24.352 116.273 24.5867 115.739 25.056C115.206 25.504 114.939 26.1227 114.939 26.912C114.939 27.7013 115.195 28.3947 115.707 28.992C116.241 29.5893 117.137 30.4 118.396 31.424C119.654 32.448 120.433 33.088 120.731 33.344C122.438 34.752 123.292 36.3947 123.292 38.272C123.292 40.1493 122.673 41.6427 121.436 42.752C120.198 43.8613 118.438 44.416 116.155 44.416C114.449 44.416 113.019 44.096 111.867 43.456C110.737 42.7947 110.171 41.8453 110.171 40.608C110.171 39.7333 110.683 38.784 111.707 37.76C112.07 39.296 112.721 40.448 113.659 41.216C114.619 41.9627 115.611 42.336 116.635 42.336C117.681 42.336 118.534 42.08 119.195 41.568C119.878 41.056 120.219 40.384 120.219 39.552C120.219 38.8267 120.081 38.2613 119.804 37.856C119.548 37.4293 119.345 37.12 119.195 36.928C119.046 36.7147 118.758 36.4267 118.332 36.064C117.905 35.68 117.574 35.4027 117.339 35.232C117.126 35.04 116.699 34.6987 116.059 34.208C115.419 33.696 114.939 33.312 114.619 33.056C112.849 31.6693 111.963 30.0053 111.963 28.064C111.963 26.1227 112.625 24.6507 113.947 23.648C115.27 22.624 117.083 22.112 119.387 22.112C122.268 22.112 123.708 23.104 123.708 25.088C123.708 26.0267 123.217 26.88 122.236 27.648C121.339 25.4507 119.889 24.352 117.884 24.352Z"/>
</mask>
<path d="M24.432 16.672C25.776 15.968 27.2053 15.616 28.72 15.616C30.2347 15.616 31.4507 15.8827 32.368 16.416C33.3067 16.928 33.776 17.664 33.776 18.624C33.776 19.1573 33.6693 19.6587 33.456 20.128C33.264 20.576 33.0827 20.896 32.912 21.088C32.7413 21.28 32.4853 21.5253 32.144 21.824C31.6107 20.608 30.9493 19.68 30.16 19.04C29.392 18.4 28.4213 18.08 27.248 18.08C26.0747 18.08 25.04 18.432 24.144 19.136C23.2693 19.84 22.576 20.7147 22.064 21.76C21.5733 22.8053 21.1573 23.9787 20.816 25.28C20.24 27.4773 19.952 29.6427 19.952 31.776C19.952 35.2107 20.5067 37.8453 21.616 39.68C22.7253 41.5147 24.3787 42.432 26.576 42.432C27.7707 42.432 28.8267 42.0587 29.744 41.312C30.6827 40.5653 31.3973 39.4773 31.888 38.048C32.4213 38.6453 32.688 39.3813 32.688 40.256C32.688 41.3653 31.9627 42.3787 30.512 43.296C29.0827 44.2133 27.472 44.672 25.68 44.672C22.5867 44.672 20.2827 43.616 18.768 41.504C17.2533 39.392 16.496 36.64 16.496 33.248C16.496 29.792 17.1573 26.5707 18.48 23.584C19.9307 20.2987 21.9147 17.9947 24.432 16.672ZM33.7888 39.104C33.7888 37.9307 33.9808 36.096 34.3648 33.6C34.7701 31.104 34.9728 28.96 34.9728 27.168C34.9728 25.376 34.7488 24.0533 34.3008 23.2C34.8341 22.7093 35.4741 22.464 36.2208 22.464C37.7994 22.464 38.5888 23.2747 38.5888 24.896C38.5888 25.4293 38.3328 27.4773 37.8208 31.04C37.3301 34.6027 37.0848 37.2267 37.0848 38.912C37.0848 40.5973 37.5968 41.44 38.6208 41.44C39.4741 41.44 40.5088 40.4373 41.7248 38.432C42.9408 36.4267 43.9754 34.176 44.8288 31.68C45.6821 29.1627 46.1088 27.3067 46.1088 26.112C46.1088 24.896 45.9488 23.9253 45.6288 23.2C46.1834 22.7093 46.8341 22.464 47.5808 22.464C49.1594 22.464 49.9488 23.2747 49.9488 24.896C49.9488 26.0693 49.7461 27.872 49.3408 30.304C48.9354 32.736 48.7328 34.6453 48.7328 36.032C48.7328 39.0613 49.2341 41.3973 50.2368 43.04C49.5968 43.8293 48.8714 44.224 48.0608 44.224C46.2261 44.224 45.3088 41.9733 45.3088 37.472C45.3088 37.0453 45.4368 35.648 45.6928 33.28C43.8794 37.568 42.3648 40.5013 41.1488 42.08C40.6368 42.7627 40.0608 43.3387 39.4208 43.808C38.8021 44.2773 38.1941 44.512 37.5968 44.512C35.0581 44.512 33.7888 42.7093 33.7888 39.104ZM55.637 44.224C53.973 44.224 53.141 42.816 53.141 40C53.141 38.8267 53.365 36.8427 53.813 34.048C54.261 31.2533 54.485 28.96 54.485 27.168C54.485 25.376 54.261 24.0533 53.813 23.2C54.3463 22.7093 54.997 22.464 55.765 22.464C57.3223 22.464 58.101 23.2747 58.101 24.896C58.101 25.472 57.9623 26.656 57.685 28.448C57.429 30.24 57.2583 31.4667 57.173 32.128C58.325 29.0987 59.6157 26.6773 61.045 24.864C62.4957 23.0293 63.6903 22.112 64.629 22.112C65.1623 22.112 65.557 22.368 65.813 22.88C66.0903 23.392 66.229 23.9147 66.229 24.448C66.229 24.9813 66.165 25.5253 66.037 26.08C65.717 26.016 65.4183 25.984 65.141 25.984C63.7757 25.984 62.3997 26.784 61.013 28.384C59.6477 29.984 58.5703 31.744 57.781 33.664C57.013 35.584 56.629 37.1733 56.629 38.432C56.629 40.6507 57.0343 42.1973 57.845 43.072C57.1837 43.84 56.4477 44.224 55.637 44.224ZM71.9385 24.352C71.0425 24.352 70.3278 24.5867 69.7945 25.056C69.2612 25.504 68.9945 26.1227 68.9945 26.912C68.9945 27.7013 69.2505 28.3947 69.7625 28.992C70.2958 29.5893 71.1918 30.4 72.4505 31.424C73.7092 32.448 74.4878 33.088 74.7865 33.344C76.4932 34.752 77.3465 36.3947 77.3465 38.272C77.3465 40.1493 76.7278 41.6427 75.4905 42.752C74.2532 43.8613 72.4932 44.416 70.2105 44.416C68.5038 44.416 67.0745 44.096 65.9225 43.456C64.7918 42.7947 64.2265 41.8453 64.2265 40.608C64.2265 39.7333 64.7385 38.784 65.7625 37.76C66.1252 39.296 66.7758 40.448 67.7145 41.216C68.6745 41.9627 69.6665 42.336 70.6905 42.336C71.7358 42.336 72.5892 42.08 73.2505 41.568C73.9332 41.056 74.2745 40.384 74.2745 39.552C74.2745 38.8267 74.1358 38.2613 73.8585 37.856C73.6025 37.4293 73.3998 37.12 73.2505 36.928C73.1012 36.7147 72.8132 36.4267 72.3865 36.064C71.9598 35.68 71.6292 35.4027 71.3945 35.232C71.1812 35.04 70.7545 34.6987 70.1145 34.208C69.4745 33.696 68.9945 33.312 68.6745 33.056C66.9038 31.6693 66.0185 30.0053 66.0185 28.064C66.0185 26.1227 66.6798 24.6507 68.0025 23.648C69.3252 22.624 71.1385 22.112 73.4425 22.112C76.3225 22.112 77.7625 23.104 77.7625 25.088C77.7625 26.0267 77.2718 26.88 76.2905 27.648C75.3945 25.4507 73.9438 24.352 71.9385 24.352ZM87.7345 24.512C86.7318 24.512 85.8572 24.896 85.1105 25.664C84.3852 26.4107 83.8412 27.36 83.4785 28.512C82.7958 30.6453 82.4545 32.8107 82.4545 35.008C82.4545 37.184 82.9025 38.9227 83.7985 40.224C84.6945 41.5253 85.9425 42.176 87.5425 42.176C88.5665 42.176 89.4518 41.8027 90.1985 41.056C90.9452 40.288 91.4998 39.328 91.8625 38.176C92.5452 35.9787 92.8865 33.8027 92.8865 31.648C92.8865 29.472 92.4278 27.744 91.5105 26.464C90.6145 25.1627 89.3558 24.512 87.7345 24.512ZM85.9745 44.544C83.7558 44.544 82.0385 43.712 80.8225 42.048C79.6065 40.384 78.9985 38.272 78.9985 35.712C78.9985 34.1547 79.2438 32.5867 79.7345 31.008C80.2252 29.408 80.8972 27.9467 81.7505 26.624C82.6038 25.28 83.7025 24.192 85.0465 23.36C86.3905 22.528 87.8412 22.112 89.3985 22.112C91.6172 22.112 93.3238 22.944 94.5185 24.608C95.7345 26.272 96.3425 28.384 96.3425 30.944C96.3425 33.568 95.7452 36.0533 94.5505 38.4C93.2492 40.9387 91.5745 42.72 89.5265 43.744C88.4172 44.2773 87.2332 44.544 85.9745 44.544ZM101.582 44.224C99.918 44.224 99.086 42.816 99.086 40C99.086 38.8267 99.31 36.8427 99.758 34.048C100.206 31.2533 100.43 28.96 100.43 27.168C100.43 25.376 100.206 24.0533 99.758 23.2C100.291 22.7093 100.942 22.464 101.71 22.464C103.267 22.464 104.046 23.2747 104.046 24.896C104.046 25.472 103.907 26.656 103.63 28.448C103.374 30.24 103.203 31.4667 103.118 32.128C104.27 29.0987 105.561 26.6773 106.99 24.864C108.441 23.0293 109.635 22.112 110.574 22.112C111.107 22.112 111.502 22.368 111.758 22.88C112.035 23.392 112.174 23.9147 112.174 24.448C112.174 24.9813 112.11 25.5253 111.982 26.08C111.662 26.016 111.363 25.984 111.086 25.984C109.721 25.984 108.345 26.784 106.958 28.384C105.593 29.984 104.515 31.744 103.726 33.664C102.958 35.584 102.574 37.1733 102.574 38.432C102.574 40.6507 102.979 42.1973 103.79 43.072C103.129 43.84 102.393 44.224 101.582 44.224ZM117.884 24.352C116.987 24.352 116.273 24.5867 115.739 25.056C115.206 25.504 114.939 26.1227 114.939 26.912C114.939 27.7013 115.195 28.3947 115.707 28.992C116.241 29.5893 117.137 30.4 118.396 31.424C119.654 32.448 120.433 33.088 120.731 33.344C122.438 34.752 123.292 36.3947 123.292 38.272C123.292 40.1493 122.673 41.6427 121.436 42.752C120.198 43.8613 118.438 44.416 116.155 44.416C114.449 44.416 113.019 44.096 111.867 43.456C110.737 42.7947 110.171 41.8453 110.171 40.608C110.171 39.7333 110.683 38.784 111.707 37.76C112.07 39.296 112.721 40.448 113.659 41.216C114.619 41.9627 115.611 42.336 116.635 42.336C117.681 42.336 118.534 42.08 119.195 41.568C119.878 41.056 120.219 40.384 120.219 39.552C120.219 38.8267 120.081 38.2613 119.804 37.856C119.548 37.4293 119.345 37.12 119.195 36.928C119.046 36.7147 118.758 36.4267 118.332 36.064C117.905 35.68 117.574 35.4027 117.339 35.232C117.126 35.04 116.699 34.6987 116.059 34.208C115.419 33.696 114.939 33.312 114.619 33.056C112.849 31.6693 111.963 30.0053 111.963 28.064C111.963 26.1227 112.625 24.6507 113.947 23.648C115.27 22.624 117.083 22.112 119.387 22.112C122.268 22.112 123.708 23.104 123.708 25.088C123.708 26.0267 123.217 26.88 122.236 27.648C121.339 25.4507 119.889 24.352 117.884 24.352Z" fill="#FCDD11"/>
<path d="M24.432 16.672L23.968 15.7862L23.9669 15.7868L24.432 16.672ZM32.368 16.416L31.8654 17.2805L31.8772 17.2874L31.8891 17.2939L32.368 16.416ZM33.456 20.128L32.5456 19.7142L32.5411 19.7241L32.5369 19.7341L33.456 20.128ZM32.144 21.824L31.2282 22.2257L31.776 23.4747L32.8025 22.5766L32.144 21.824ZM30.16 19.04L29.5198 19.8083L29.5302 19.8168L30.16 19.04ZM24.144 19.136L23.5261 18.3496L23.517 18.357L24.144 19.136ZM22.064 21.76L21.1659 21.3201L21.1623 21.3276L21.1588 21.3351L22.064 21.76ZM20.816 25.28L19.8487 25.0263L19.8487 25.0264L20.816 25.28ZM21.616 39.68L20.7603 40.1974L20.7603 40.1974L21.616 39.68ZM29.744 41.312L29.1214 40.5293L29.1127 40.5364L29.744 41.312ZM31.888 38.048L32.6339 37.382L31.4966 36.1082L30.9422 37.7233L31.888 38.048ZM30.512 43.296L29.9775 42.4508L29.9719 42.4544L30.512 43.296ZM18.768 41.504L17.9554 42.0868L17.9554 42.0868L18.768 41.504ZM18.48 23.584L19.3943 23.9889L19.3948 23.9879L18.48 23.584ZM24.896 17.5578C26.0971 16.9287 27.3672 16.616 28.72 16.616V14.616C27.0434 14.616 25.4549 15.0073 23.968 15.7862L24.896 17.5578ZM28.72 16.616C30.1293 16.616 31.1523 16.8659 31.8654 17.2805L32.8706 15.5515C31.749 14.8994 30.34 14.616 28.72 14.616V16.616ZM31.8891 17.2939C32.5512 17.655 32.776 18.0781 32.776 18.624H34.776C34.776 17.2499 34.0621 16.201 32.8469 15.5381L31.8891 17.2939ZM32.776 18.624C32.776 19.0196 32.6978 19.3793 32.5456 19.7142L34.3664 20.5418C34.6408 19.938 34.776 19.295 34.776 18.624H32.776ZM32.5369 19.7341C32.3564 20.1553 32.2258 20.3548 32.1646 20.4236L33.6594 21.7524C33.9396 21.4372 34.1717 20.9967 34.3751 20.5219L32.5369 19.7341ZM32.1646 20.4236C32.035 20.5695 31.8153 20.7829 31.4855 21.0714L32.8025 22.5766C33.1554 22.2678 33.4477 21.9905 33.6594 21.7524L32.1646 20.4236ZM33.0598 21.4223C32.4814 20.1035 31.7351 19.0297 30.7898 18.2632L29.5302 19.8168C30.1636 20.3303 30.74 21.1125 31.2282 22.2257L33.0598 21.4223ZM30.8002 18.2718C29.8222 17.4568 28.6126 17.08 27.248 17.08V19.08C28.23 19.08 28.9618 19.3432 29.5198 19.8082L30.8002 18.2718ZM27.248 17.08C25.8578 17.08 24.6039 17.5029 23.5262 18.3497L24.7618 19.9223C25.4761 19.3611 26.2915 19.08 27.248 19.08V17.08ZM23.517 18.357C22.524 19.1562 21.7399 20.1482 21.1659 21.3201L22.9621 22.1999C23.4121 21.2811 24.0147 20.5238 24.771 19.915L23.517 18.357ZM21.1588 21.3351C20.6384 22.4436 20.203 23.6755 19.8487 25.0263L21.7833 25.5337C22.1116 24.2818 22.5082 23.1671 22.9692 22.1849L21.1588 21.3351ZM19.8487 25.0264C19.2524 27.3012 18.952 29.5517 18.952 31.776H20.952C20.952 29.7336 21.2276 27.6535 21.7833 25.5336L19.8487 25.0264ZM18.952 31.776C18.952 35.2937 19.5158 38.1392 20.7603 40.1974L22.4717 39.1626C21.4976 37.5514 20.952 35.1277 20.952 31.776H18.952ZM20.7603 40.1974C22.0562 42.3407 24.0393 43.432 26.576 43.432V41.432C24.718 41.432 23.3945 40.6887 22.4717 39.1626L20.7603 40.1974ZM26.576 43.432C27.9981 43.432 29.2776 42.981 30.3753 42.0876L29.1127 40.5364C28.3757 41.1363 27.5432 41.432 26.576 41.432V43.432ZM30.3665 42.0946C31.4888 41.2019 32.2973 39.9357 32.8338 38.3727L30.9422 37.7233C30.4974 39.0189 29.8765 39.9288 29.1215 40.5294L30.3665 42.0946ZM31.1421 38.714C31.4961 39.1106 31.688 39.6025 31.688 40.256H33.688C33.688 39.1602 33.3465 38.1801 32.6339 37.382L31.1421 38.714ZM31.688 40.256C31.688 40.8627 31.3057 41.6109 29.9775 42.4508L31.0465 44.1412C32.6196 43.1464 33.688 41.868 33.688 40.256H31.688ZM29.9719 42.4544C28.7128 43.2625 27.2916 43.672 25.68 43.672V45.672C27.6524 45.672 29.4526 45.1642 31.0521 44.1376L29.9719 42.4544ZM25.68 43.672C22.8393 43.672 20.8703 42.7194 19.5806 40.9212L17.9554 42.0868C19.6951 44.5126 22.334 45.672 25.68 45.672V43.672ZM19.5806 40.9212C18.2202 39.0243 17.496 36.4944 17.496 33.248H15.496C15.496 36.7856 16.2865 39.7597 17.9554 42.0868L19.5806 40.9212ZM17.496 33.248C17.496 29.9232 18.1314 26.8407 19.3943 23.9889L17.5657 23.1791C16.1833 26.3006 15.496 29.6608 15.496 33.248H17.496ZM19.3948 23.9879C20.7787 20.8539 22.6274 18.7498 24.8971 17.5572L23.9669 15.7868C21.2019 17.2395 19.0827 19.7435 17.5652 23.1801L19.3948 23.9879ZM34.3648 33.6L33.3776 33.4397L33.3764 33.4479L34.3648 33.6ZM34.3008 23.2L33.6237 22.4641L33.0581 22.9844L33.4154 23.6648L34.3008 23.2ZM37.8208 31.04L36.8309 30.8977L36.8301 30.9036L37.8208 31.04ZM41.7248 38.432L42.5798 38.9505L42.5798 38.9505L41.7248 38.432ZM44.8288 31.68L45.775 32.0035L45.7758 32.001L44.8288 31.68ZM45.6288 23.2L44.9662 22.451L44.4189 22.9351L44.7138 23.6036L45.6288 23.2ZM49.3408 30.304L48.3544 30.1396L49.3408 30.304ZM50.2368 43.04L51.0135 43.6698L51.4581 43.1215L51.0903 42.519L50.2368 43.04ZM45.6928 33.28L46.687 33.3875L44.7717 32.8905L45.6928 33.28ZM41.1488 42.08L40.3565 41.4697L40.3488 41.48L41.1488 42.08ZM39.4208 43.808L38.8294 43.0016L38.8228 43.0064L38.8164 43.0113L39.4208 43.808ZM34.7888 39.104C34.7888 38.0121 34.9701 36.2414 35.3531 33.7521L33.3764 33.4479C32.9914 35.9506 32.7888 37.8492 32.7888 39.104H34.7888ZM35.3518 33.7603C35.7626 31.231 35.9728 29.0305 35.9728 27.168H33.9728C33.9728 28.8895 33.7776 30.977 33.3777 33.4397L35.3518 33.7603ZM35.9728 27.168C35.9728 25.3308 35.7495 23.8082 35.1861 22.7352L33.4154 23.6648C33.748 24.2984 33.9728 25.4212 33.9728 27.168H35.9728ZM34.9778 23.9359C35.3205 23.6207 35.7165 23.464 36.2208 23.464V21.464C35.2317 21.464 34.3477 21.798 33.6237 22.4641L34.9778 23.9359ZM36.2208 23.464C36.8491 23.464 37.1382 23.6237 37.2803 23.7696C37.4272 23.9205 37.5888 24.2329 37.5888 24.896H39.5888C39.5888 23.9378 39.3557 23.0342 38.7132 22.3744C38.066 21.7096 37.1711 21.464 36.2208 21.464V23.464ZM37.5888 24.896C37.5888 25.0866 37.5352 25.6622 37.4045 26.708C37.2776 27.723 37.0866 29.1187 36.8309 30.8977L38.8106 31.1823C39.0669 29.3986 39.2599 27.989 39.389 26.956C39.5143 25.9538 39.5888 25.2387 39.5888 24.896H37.5888ZM36.8301 30.9036C36.3385 34.4727 36.0848 37.1539 36.0848 38.912H38.0848C38.0848 37.2994 38.3216 34.7326 38.8114 31.1764L36.8301 30.9036ZM36.0848 38.912C36.0848 39.8234 36.2174 40.6742 36.6141 41.3273C37.0599 42.0609 37.7759 42.44 38.6208 42.44V40.44C38.5043 40.44 38.4512 40.417 38.4297 40.4053C38.41 40.3945 38.372 40.3688 38.3234 40.2887C38.2081 40.0991 38.0848 39.686 38.0848 38.912H36.0848ZM38.6208 42.44C39.4367 42.44 40.149 41.9718 40.7327 41.4061C41.3375 40.82 41.9515 39.9867 42.5798 38.9505L40.8697 37.9135C40.282 38.8826 39.7707 39.5533 39.3408 39.9699C38.8899 40.4069 38.6582 40.44 38.6208 40.44V42.44ZM42.5798 38.9505C43.8374 36.8766 44.9012 34.5593 45.775 32.0035L43.8825 31.3565C43.0496 33.7927 42.0441 35.9768 40.8697 37.9135L42.5798 38.9505ZM45.7758 32.001C46.6319 29.4755 47.1088 27.4843 47.1088 26.112H45.1088C45.1088 27.129 44.7322 28.8499 43.8817 31.359L45.7758 32.001ZM47.1088 26.112C47.1088 24.8238 46.9416 23.6983 46.5437 22.7964L44.7138 23.6036C44.9559 24.1523 45.1088 24.9682 45.1088 26.112H47.1088ZM46.2913 23.949C46.6615 23.6215 47.0759 23.464 47.5808 23.464V21.464C46.5922 21.464 45.7053 21.7971 44.9662 22.451L46.2913 23.949ZM47.5808 23.464C48.2091 23.464 48.4982 23.6237 48.6403 23.7696C48.7872 23.9205 48.9488 24.2329 48.9488 24.896H50.9488C50.9488 23.9378 50.7157 23.0342 50.0732 22.3744C49.426 21.7096 48.5311 21.464 47.5808 21.464V23.464ZM48.9488 24.896C48.9488 25.9819 48.7582 27.7163 48.3544 30.1396L50.3271 30.4684C50.7339 28.0277 50.9488 26.1567 50.9488 24.896H48.9488ZM48.3544 30.1396C47.9458 32.5911 47.7328 34.5636 47.7328 36.032H49.7328C49.7328 34.7271 49.9251 32.8809 50.3271 30.4684L48.3544 30.1396ZM47.7328 36.032C47.7328 39.1489 48.2446 41.6957 49.3832 43.561L51.0903 42.519C50.2235 41.099 49.7328 38.9738 49.7328 36.032H47.7328ZM49.46 42.4102C48.9573 43.0302 48.4953 43.224 48.0608 43.224V45.224C49.2475 45.224 50.2362 44.6284 51.0135 43.6698L49.46 42.4102ZM48.0608 43.224C47.8248 43.224 47.6491 43.1581 47.4898 43.0279C47.3138 42.884 47.1112 42.6208 46.9228 42.1586C46.5385 41.2156 46.3088 39.6845 46.3088 37.472H44.3088C44.3088 39.7608 44.5377 41.6057 45.0707 42.9134C45.341 43.5766 45.7117 44.1574 46.2237 44.5761C46.7524 45.0085 47.3794 45.224 48.0608 45.224V43.224ZM46.3088 37.472C46.3088 37.1139 46.4276 35.7869 46.687 33.3875L44.6985 33.1725C44.4459 35.5091 44.3088 36.9768 44.3088 37.472H46.3088ZM44.7717 32.8905C42.9593 37.1763 41.4865 40.0028 40.3565 41.4698L41.941 42.6902C43.243 40.9999 44.7995 37.9597 46.6138 33.6695L44.7717 32.8905ZM40.3488 41.48C39.8913 42.0899 39.3843 42.5946 38.8294 43.0016L40.0121 44.6144C40.7372 44.0827 41.3822 43.4355 41.9488 42.68L40.3488 41.48ZM38.8164 43.0113C38.3192 43.3884 37.9182 43.512 37.5968 43.512V45.512C38.47 45.512 39.2849 45.1662 40.0251 44.6047L38.8164 43.0113ZM37.5968 43.512C36.596 43.512 35.9753 43.1763 35.5584 42.5843C35.0963 41.9281 34.7888 40.8198 34.7888 39.104H32.7888C32.7888 40.9935 33.1158 42.5893 33.9231 43.7357C34.7755 44.9463 36.0589 45.512 37.5968 45.512V43.512ZM53.813 23.2L53.1359 22.4641L52.5704 22.9844L52.9276 23.6648L53.813 23.2ZM57.685 28.448L56.6967 28.295L56.6951 28.3066L57.685 28.448ZM57.173 32.128L56.1812 32L58.1077 32.4834L57.173 32.128ZM61.045 24.864L60.2606 24.2438L60.2596 24.245L61.045 24.864ZM65.813 22.88L64.9186 23.3272L64.9259 23.3419L64.9337 23.3563L65.813 22.88ZM66.037 26.08L65.8409 27.0606L66.7931 27.251L67.0114 26.3049L66.037 26.08ZM61.013 28.384L60.2573 27.729L60.2523 27.7349L61.013 28.384ZM57.781 33.664L56.8561 33.2837L56.8525 33.2926L57.781 33.664ZM57.845 43.072L58.6028 43.7245L59.1858 43.0475L58.5784 42.3922L57.845 43.072ZM55.637 43.224C55.151 43.224 54.8582 43.0523 54.6259 42.6593C54.3451 42.184 54.141 41.3422 54.141 40H52.141C52.141 41.4738 52.3529 42.744 52.9041 43.6767C53.5038 44.6917 54.459 45.224 55.637 45.224V43.224ZM54.141 40C54.141 38.9146 54.3524 37.0011 54.8004 34.2063L52.8256 33.8897C52.3776 36.6842 52.141 38.7387 52.141 40H54.141ZM54.8004 34.2063C55.2526 31.3856 55.485 29.0343 55.485 27.168H53.485C53.485 28.8857 53.2694 31.1211 52.8256 33.8897L54.8004 34.2063ZM55.485 27.168C55.485 25.3308 55.2618 23.8082 54.6984 22.7352L52.9276 23.6648C53.2602 24.2984 53.485 25.4212 53.485 27.168H55.485ZM54.4901 23.9359C54.8271 23.6259 55.2314 23.464 55.765 23.464V21.464C54.7626 21.464 53.8656 21.7928 53.1359 22.4641L54.4901 23.9359ZM55.765 23.464C56.379 23.464 56.6584 23.6217 56.7958 23.7647C56.9404 23.9153 57.101 24.2296 57.101 24.896H59.101C59.101 23.941 58.8723 23.0394 58.2382 22.3793C57.5969 21.7116 56.7083 21.464 55.765 21.464V23.464ZM57.101 24.896C57.101 25.3813 56.9765 26.4874 56.6968 28.2951L58.6732 28.6009C58.9482 26.8246 59.101 25.5627 59.101 24.896H57.101ZM56.6951 28.3066C56.4391 30.098 56.2675 31.331 56.1812 32L58.1648 32.256C58.2491 31.6023 58.4189 30.382 58.675 28.5894L56.6951 28.3066ZM58.1077 32.4834C59.237 29.5139 60.4836 27.1916 61.8304 25.483L60.2596 24.245C58.7478 26.163 57.413 28.6834 56.2383 31.7726L58.1077 32.4834ZM61.8294 25.4842C62.5284 24.6002 63.1316 23.982 63.638 23.5931C64.1586 23.1934 64.4778 23.112 64.629 23.112V21.112C63.8416 21.112 63.094 21.4893 62.42 22.0068C61.7318 22.5353 61.0122 23.2932 60.2606 24.2438L61.8294 25.4842ZM64.629 23.112C64.7291 23.112 64.7665 23.1337 64.7808 23.143C64.7992 23.1549 64.853 23.1962 64.9186 23.3272L66.7074 22.4328C66.517 22.0518 66.2455 21.7091 65.8692 21.465C65.4889 21.2183 65.0622 21.112 64.629 21.112V23.112ZM64.9337 23.3563C65.1393 23.7358 65.229 24.096 65.229 24.448H67.229C67.229 23.7334 67.0414 23.0482 66.6923 22.4037L64.9337 23.3563ZM65.229 24.448C65.229 24.9008 65.1747 25.3693 65.0626 25.8551L67.0114 26.3049C67.1553 25.6814 67.229 25.0619 67.229 24.448H65.229ZM66.2331 25.0994C65.8595 25.0247 65.4945 24.984 65.141 24.984V26.984C65.3422 26.984 65.5745 27.0073 65.8409 27.0606L66.2331 25.0994ZM65.141 24.984C63.3573 24.984 61.7296 26.0303 60.2573 27.7291L61.7687 29.0389C63.0697 27.5377 64.194 26.984 65.141 26.984V24.984ZM60.2523 27.7349C58.8193 29.4142 57.6862 31.2647 56.8561 33.2838L58.7059 34.0442C59.4545 32.2233 60.476 30.5538 61.7737 29.0331L60.2523 27.7349ZM56.8525 33.2926C56.0637 35.2646 55.629 36.9903 55.629 38.432H57.629C57.629 37.3564 57.9623 35.9034 58.7095 34.0354L56.8525 33.2926ZM55.629 38.432C55.629 40.7098 56.0326 42.5876 57.1116 43.7518L58.5784 42.3922C58.0361 41.8071 57.629 40.5915 57.629 38.432H55.629ZM57.0872 42.4195C56.5644 43.0266 56.086 43.224 55.637 43.224V45.224C56.8093 45.224 57.8029 44.6534 58.6028 43.7245L57.0872 42.4195ZM69.7945 25.056L70.4377 25.8217L70.4465 25.8143L70.4551 25.8067L69.7945 25.056ZM69.7625 28.992L69.0032 29.6428L69.0098 29.6505L69.0166 29.658L69.7625 28.992ZM72.4505 31.424L71.8194 32.1997L71.8194 32.1997L72.4505 31.424ZM74.7865 33.344L74.1357 34.1033L74.1429 34.1094L74.1501 34.1154L74.7865 33.344ZM75.4905 42.752L76.158 43.4966L76.158 43.4966L75.4905 42.752ZM65.9225 43.456L65.4176 44.3192L65.4272 44.3248L65.4369 44.3302L65.9225 43.456ZM65.7625 37.76L66.7357 37.5302L66.3236 35.7847L65.0554 37.0529L65.7625 37.76ZM67.7145 41.216L67.0813 41.99L67.0908 41.9978L67.1006 42.0054L67.7145 41.216ZM73.2505 41.568L72.6505 40.768L72.6444 40.7726L72.6383 40.7773L73.2505 41.568ZM73.8585 37.856L73.001 38.3705L73.0164 38.3961L73.0332 38.4207L73.8585 37.856ZM73.2505 36.928L72.4313 37.5015L72.4457 37.5221L72.4611 37.5419L73.2505 36.928ZM72.3865 36.064L71.7175 36.8073L71.7281 36.8168L71.7389 36.8259L72.3865 36.064ZM71.3945 35.232L70.7255 35.9753L70.7642 36.0101L70.8063 36.0407L71.3945 35.232ZM70.1145 34.208L69.4898 34.9889L69.4979 34.9953L69.5061 35.0016L70.1145 34.208ZM68.6745 33.056L69.2992 32.2751L69.2911 32.2687L68.6745 33.056ZM68.0025 23.648L68.6066 24.4449L68.6147 24.4387L68.0025 23.648ZM76.2905 27.648L75.3645 28.0256L75.8643 29.2513L76.9068 28.4355L76.2905 27.648ZM71.9385 23.352C70.8649 23.352 69.8937 23.6367 69.1339 24.3053L70.4551 25.8067C70.762 25.5367 71.2201 25.352 71.9385 25.352V23.352ZM69.1513 24.2903C68.36 24.955 67.9945 25.8714 67.9945 26.912H69.9945C69.9945 26.3739 70.1623 26.053 70.4377 25.8217L69.1513 24.2903ZM67.9945 26.912C67.9945 27.9392 68.3353 28.8636 69.0032 29.6428L70.5218 28.3412C70.1657 27.9258 69.9945 27.4635 69.9945 26.912H67.9945ZM69.0166 29.658C69.6052 30.3173 70.5524 31.1689 71.8194 32.1997L73.0816 30.6483C71.8313 29.6311 70.9865 28.8614 70.5084 28.326L69.0166 29.658ZM71.8194 32.1997C73.082 33.2269 73.849 33.8575 74.1357 34.1033L75.4373 32.5847C75.1266 32.3185 74.3363 31.6691 73.0816 30.6483L71.8194 32.1997ZM74.1501 34.1154C75.6722 35.3711 76.3465 36.7477 76.3465 38.272H78.3465C78.3465 36.0416 77.3141 34.1329 75.4229 32.5726L74.1501 34.1154ZM76.3465 38.272C76.3465 39.9061 75.8201 41.1135 74.823 42.0074L76.158 43.4966C77.6356 42.1719 78.3465 40.3926 78.3465 38.272H76.3465ZM74.823 42.0074C73.828 42.8995 72.3394 43.416 70.2105 43.416V45.416C72.647 45.416 74.6784 44.8232 76.158 43.4966L74.823 42.0074ZM70.2105 43.416C68.625 43.416 67.3741 43.1185 66.4081 42.5818L65.4369 44.3302C66.7749 45.0735 68.3827 45.416 70.2105 45.416V43.416ZM66.4274 42.5928C65.5814 42.098 65.2265 41.4653 65.2265 40.608H63.2265C63.2265 42.2253 64.0023 43.4914 65.4176 44.3192L66.4274 42.5928ZM65.2265 40.608C65.2265 40.1273 65.5165 39.4202 66.4696 38.4671L65.0554 37.0529C63.9605 38.1478 63.2265 39.3394 63.2265 40.608H65.2265ZM64.7893 37.9898C65.1871 39.6749 65.9275 41.0459 67.0813 41.99L68.3477 40.442C67.6242 39.8501 67.0632 38.9171 66.7357 37.5302L64.7893 37.9898ZM67.1006 42.0054C68.2019 42.862 69.4044 43.336 70.6905 43.336V41.336C69.9286 41.336 69.1471 41.0633 68.3284 40.4266L67.1006 42.0054ZM70.6905 43.336C71.901 43.336 72.9862 43.0373 73.8627 42.3587L72.6383 40.7773C72.1921 41.1227 71.5706 41.336 70.6905 41.336V43.336ZM73.8505 42.368C74.7774 41.6728 75.2745 40.7081 75.2745 39.552H73.2745C73.2745 40.0599 73.089 40.4392 72.6505 40.768L73.8505 42.368ZM75.2745 39.552C75.2745 38.7161 75.1173 37.9249 74.6838 37.2913L73.0332 38.4207C73.1544 38.5978 73.2745 38.9372 73.2745 39.552H75.2745ZM74.716 37.3415C74.456 36.9082 74.228 36.5559 74.0399 36.3141L72.4611 37.5419C72.5717 37.6841 72.749 37.9505 73.001 38.3705L74.716 37.3415ZM74.0697 36.3545C73.8419 36.0291 73.4691 35.6717 73.0341 35.3021L71.7389 36.8259C72.1573 37.1816 72.3604 37.4002 72.4313 37.5015L74.0697 36.3545ZM73.0555 35.3207C72.6228 34.9313 72.2608 34.6255 71.9827 34.4233L70.8063 36.0407C70.9975 36.1798 71.2969 36.4287 71.7175 36.8073L73.0555 35.3207ZM72.0635 34.4887C71.8165 34.2664 71.3592 33.9022 70.7229 33.4144L69.5061 35.0016C70.1498 35.4951 70.5459 35.8136 70.7255 35.9753L72.0635 34.4887ZM70.7392 33.4271C70.7163 33.4088 70.5246 33.2554 70.5067 33.2411C70.4416 33.189 70.3493 33.1152 70.2892 33.0671C70.2481 33.0342 70.1228 32.934 70.0867 32.9051C70.0405 32.8682 70.036 32.8646 69.9911 32.8286C69.9375 32.7858 69.9515 32.797 69.8992 32.7551C69.8905 32.7482 69.8631 32.7262 69.8547 32.7195C69.8462 32.7127 69.8192 32.6911 69.8111 32.6846C69.7944 32.6713 69.7421 32.6295 69.7267 32.6171C69.6942 32.5911 69.5967 32.5131 69.5692 32.4911C69.5072 32.4416 69.3412 32.3087 69.2992 32.2751L68.0498 33.8369C68.0612 33.846 68.1609 33.9257 68.1773 33.9389C68.1866 33.9463 68.3055 34.0414 68.3198 34.0529C68.3483 34.0757 68.3669 34.0905 68.3967 34.1144C68.4033 34.1196 68.4695 34.1726 68.4773 34.1789C68.5088 34.204 68.6134 34.2877 68.6498 34.3169C68.8298 34.4608 68.8398 34.4689 69.0398 34.6289C69.0461 34.6339 69.0467 34.6344 69.053 34.6394C69.0542 34.6404 69.0583 34.6437 69.0596 34.6447C69.0607 34.6456 69.0618 34.6464 69.0629 34.6473C69.064 34.6482 69.0651 34.6491 69.0662 34.65C69.0693 34.6525 69.0696 34.6527 69.0728 34.6553C69.0739 34.6561 69.075 34.657 69.0761 34.6579C69.0772 34.6588 69.0783 34.6597 69.0794 34.6606C69.0806 34.6615 69.0817 34.6624 69.0828 34.6632C69.0839 34.6641 69.085 34.665 69.0861 34.6659C69.0861 34.6659 69.0928 34.6712 69.0928 34.6712C69.0939 34.6721 69.095 34.673 69.0961 34.6739C69.0972 34.6748 69.0983 34.6757 69.0995 34.6766C69.1006 34.6775 69.1017 34.6784 69.1028 34.6793C69.1039 34.6802 69.105 34.6811 69.1062 34.682C69.1094 34.6845 69.1097 34.6848 69.1129 34.6873C69.1148 34.6889 69.1177 34.6912 69.1196 34.6927C69.1235 34.6958 69.1292 34.7004 69.1331 34.7035C69.137 34.7066 69.1428 34.7113 69.1467 34.7144C69.2089 34.7642 69.1938 34.7521 69.2573 34.8029C69.3115 34.8462 69.3162 34.85 69.3717 34.8944C69.3938 34.9121 69.4078 34.9233 69.4303 34.9412C69.4414 34.9501 69.4784 34.9797 69.4898 34.9889L70.7392 33.4271ZM69.2911 32.2687C67.7192 31.0377 67.0185 29.6469 67.0185 28.064H65.0185C65.0185 30.3638 66.0885 32.301 68.0579 33.8433L69.2911 32.2687ZM67.0185 28.064C67.0185 26.3756 67.5776 25.225 68.6066 24.4449L67.3984 22.8511C65.7821 24.0764 65.0185 25.8698 65.0185 28.064H67.0185ZM68.6147 24.4387C69.7065 23.5934 71.2777 23.112 73.4425 23.112V21.112C70.9993 21.112 68.9438 21.6546 67.3903 22.8573L68.6147 24.4387ZM73.4425 23.112C74.7987 23.112 75.6386 23.3512 76.1152 23.6795C76.5245 23.9615 76.7625 24.3735 76.7625 25.088H78.7625C78.7625 23.8185 78.2805 22.7425 77.2498 22.0325C76.2864 21.3688 74.9663 21.112 73.4425 21.112V23.112ZM76.7625 25.088C76.7625 25.6248 76.4989 26.2151 75.6742 26.8605L76.9068 28.4355C78.0448 27.5449 78.7625 26.4285 78.7625 25.088H76.7625ZM77.2165 27.2704C76.7208 26.0549 76.0399 25.0648 75.1342 24.3788C74.2173 23.6844 73.1357 23.352 71.9385 23.352V25.352C72.7467 25.352 73.393 25.5689 73.9268 25.9732C74.4717 26.3859 74.9642 27.0438 75.3645 28.0256L77.2165 27.2704ZM85.1105 25.664L84.3935 24.9669L84.3932 24.9672L85.1105 25.664ZM83.4785 28.512L84.4309 28.8168L84.4324 28.8123L83.4785 28.512ZM83.7985 40.224L82.9749 40.7911L82.9749 40.7911L83.7985 40.224ZM90.1985 41.056L90.9057 41.7632L90.9155 41.7531L90.1985 41.056ZM91.8625 38.176L92.8164 38.4763L92.8175 38.4727L91.8625 38.176ZM91.5105 26.464L90.6869 27.0311L90.6922 27.0389L90.6977 27.0465L91.5105 26.464ZM80.8225 42.048L80.0151 42.638L80.0151 42.638L80.8225 42.048ZM79.7345 31.008L80.6894 31.3048L80.6906 31.3012L79.7345 31.008ZM81.7505 26.624L82.5908 27.1661L82.5947 27.16L81.7505 26.624ZM85.0465 23.36L84.5201 22.5097L84.5201 22.5097L85.0465 23.36ZM94.5185 24.608L93.7062 25.1912L93.7111 25.198L94.5185 24.608ZM94.5505 38.4L95.4404 38.8562L95.4417 38.8537L94.5505 38.4ZM89.5265 43.744L89.9598 44.6453L89.9668 44.6419L89.9737 44.6384L89.5265 43.744ZM87.7345 23.512C86.4419 23.512 85.3141 24.02 84.3935 24.9669L85.8275 26.3611C86.4002 25.772 87.0218 25.512 87.7345 25.512V23.512ZM84.3932 24.9672C83.543 25.8424 82.9267 26.9348 82.5247 28.2117L84.4324 28.8123C84.7557 27.7852 85.2273 26.9789 85.8278 26.3608L84.3932 24.9672ZM82.5261 28.2072C81.8125 30.4371 81.4545 32.7052 81.4545 35.008H83.4545C83.4545 32.9161 83.7792 30.8535 84.4309 28.8168L82.5261 28.2072ZM81.4545 35.008C81.4545 37.3123 81.9281 39.2708 82.9749 40.7911L84.6222 39.6569C83.8769 38.5746 83.4545 37.0557 83.4545 35.008H81.4545ZM82.9749 40.7911C84.0603 42.3676 85.6185 43.176 87.5425 43.176V41.176C86.2665 41.176 85.3287 40.6831 84.6222 39.6569L82.9749 40.7911ZM87.5425 43.176C88.8408 43.176 89.9779 42.6908 90.9056 41.7631L89.4914 40.3489C88.9257 40.9146 88.2922 41.176 87.5425 41.176V43.176ZM90.9155 41.7531C91.7842 40.8596 92.4128 39.7581 92.8164 38.4763L90.9087 37.8757C90.5868 38.8979 90.1061 39.7164 89.4815 40.3589L90.9155 41.7531ZM92.8175 38.4727C93.528 36.1858 93.8865 33.9099 93.8865 31.648H91.8865C91.8865 33.6955 91.5624 35.7715 90.9075 37.8793L92.8175 38.4727ZM93.8865 31.648C93.8865 29.3408 93.401 27.3852 92.3233 25.8815L90.6977 27.0465C91.4547 28.1028 91.8865 29.6031 91.8865 31.648H93.8865ZM92.3342 25.8969C91.2458 24.3162 89.6746 23.512 87.7345 23.512V25.512C89.0371 25.512 89.9832 26.0092 90.6869 27.0311L92.3342 25.8969ZM85.9745 43.544C84.0465 43.544 82.6414 42.8421 81.6299 41.458L80.0151 42.638C81.4356 44.5819 83.4652 45.544 85.9745 45.544V43.544ZM81.6299 41.458C80.5666 40.003 79.9985 38.112 79.9985 35.712H77.9985C77.9985 38.432 78.6464 40.765 80.0151 42.638L81.6299 41.458ZM79.9985 35.712C79.9985 34.2613 80.2268 32.7933 80.6894 31.3048L78.7796 30.7112C78.2609 32.38 77.9985 34.048 77.9985 35.712H79.9985ZM80.6906 31.3012C81.156 29.7835 81.7904 28.4068 82.5908 27.1661L80.9102 26.0819C80.004 27.4865 79.2944 29.0325 78.7784 30.7148L80.6906 31.3012ZM82.5947 27.16C83.3678 25.9425 84.3581 24.9622 85.5729 24.2103L84.5201 22.5097C83.0469 23.4218 81.8399 24.6175 80.9063 26.088L82.5947 27.16ZM85.5729 24.2103C86.7612 23.4746 88.0301 23.112 89.3985 23.112V21.112C87.6523 21.112 86.0198 21.5814 84.5201 22.5097L85.5729 24.2103ZM89.3985 23.112C91.3264 23.112 92.7169 23.8133 93.7062 25.1912L95.3308 24.0248C93.9308 22.0747 91.908 21.112 89.3985 21.112V23.112ZM93.7111 25.198C94.7744 26.653 95.3425 28.544 95.3425 30.944H97.3425C97.3425 28.224 96.6946 25.891 95.3259 24.018L93.7111 25.198ZM95.3425 30.944C95.3425 33.4097 94.7827 35.7397 93.6593 37.9463L95.4417 38.8537C96.7076 36.367 97.3425 33.7263 97.3425 30.944H95.3425ZM93.6606 37.9438C92.4322 40.3402 90.8943 41.9421 89.0793 42.8496L89.9737 44.6384C92.2547 43.4979 94.0661 41.5371 95.4404 38.8562L93.6606 37.9438ZM89.0932 42.8427C88.1222 43.3096 87.0867 43.544 85.9745 43.544V45.544C87.3797 45.544 88.7121 45.2451 89.9598 44.6453L89.0932 42.8427ZM99.758 23.2L99.0809 22.4641L98.5154 22.9844L98.8726 23.6648L99.758 23.2ZM103.63 28.448L102.642 28.295L102.64 28.3066L103.63 28.448ZM103.118 32.128L102.126 32L104.053 32.4834L103.118 32.128ZM106.99 24.864L106.206 24.2438L106.205 24.245L106.99 24.864ZM111.758 22.88L110.864 23.3272L110.871 23.3419L110.879 23.3563L111.758 22.88ZM111.982 26.08L111.786 27.0606L112.738 27.251L112.956 26.3049L111.982 26.08ZM106.958 28.384L106.202 27.729L106.197 27.7349L106.958 28.384ZM103.726 33.664L102.801 33.2837L102.798 33.2926L103.726 33.664ZM103.79 43.072L104.548 43.7245L105.131 43.0475L104.523 42.3922L103.79 43.072ZM101.582 43.224C101.096 43.224 100.803 43.0523 100.571 42.6593C100.29 42.184 100.086 41.3422 100.086 40H98.086C98.086 41.4738 98.2979 42.744 98.8491 43.6767C99.4488 44.6917 100.404 45.224 101.582 45.224V43.224ZM100.086 40C100.086 38.9146 100.297 37.0011 100.745 34.2063L98.7706 33.8897C98.3226 36.6842 98.086 38.7387 98.086 40H100.086ZM100.745 34.2063C101.198 31.3856 101.43 29.0343 101.43 27.168H99.43C99.43 28.8857 99.2144 31.1211 98.7706 33.8897L100.745 34.2063ZM101.43 27.168C101.43 25.3308 101.207 23.8082 100.643 22.7352L98.8726 23.6648C99.2052 24.2984 99.43 25.4212 99.43 27.168H101.43ZM100.435 23.9359C100.772 23.6259 101.176 23.464 101.71 23.464V21.464C100.708 21.464 99.8106 21.7928 99.0809 22.4641L100.435 23.9359ZM101.71 23.464C102.324 23.464 102.603 23.6217 102.741 23.7647C102.885 23.9153 103.046 24.2296 103.046 24.896H105.046C105.046 23.941 104.817 23.0394 104.183 22.3793C103.542 21.7116 102.653 21.464 101.71 21.464V23.464ZM103.046 24.896C103.046 25.3813 102.922 26.4874 102.642 28.2951L104.618 28.6009C104.893 26.8246 105.046 25.5627 105.046 24.896H103.046ZM102.64 28.3066C102.384 30.098 102.213 31.331 102.126 32L104.11 32.256C104.194 31.6023 104.364 30.382 104.62 28.5894L102.64 28.3066ZM104.053 32.4834C105.182 29.5139 106.429 27.1916 107.775 25.483L106.205 24.245C104.693 26.163 103.358 28.6834 102.183 31.7726L104.053 32.4834ZM107.774 25.4842C108.473 24.6002 109.077 23.982 109.583 23.5931C110.104 23.1934 110.423 23.112 110.574 23.112V21.112C109.787 21.112 109.039 21.4893 108.365 22.0068C107.677 22.5353 106.957 23.2932 106.206 24.2438L107.774 25.4842ZM110.574 23.112C110.674 23.112 110.711 23.1337 110.726 23.143C110.744 23.1549 110.798 23.1962 110.864 23.3272L112.652 22.4328C112.462 22.0518 112.19 21.7091 111.814 21.465C111.434 21.2183 111.007 21.112 110.574 21.112V23.112ZM110.879 23.3563C111.084 23.7358 111.174 24.096 111.174 24.448H113.174C113.174 23.7334 112.986 23.0482 112.637 22.4037L110.879 23.3563ZM111.174 24.448C111.174 24.9008 111.12 25.3693 111.008 25.8551L112.956 26.3049C113.1 25.6814 113.174 25.0619 113.174 24.448H111.174ZM112.178 25.0994C111.805 25.0247 111.44 24.984 111.086 24.984V26.984C111.287 26.984 111.519 27.0073 111.786 27.0606L112.178 25.0994ZM111.086 24.984C109.302 24.984 107.675 26.0303 106.202 27.7291L107.714 29.0389C109.015 27.5377 110.139 26.984 111.086 26.984V24.984ZM106.197 27.7349C104.764 29.4142 103.631 31.2647 102.801 33.2838L104.651 34.0442C105.4 32.2233 106.421 30.5538 107.719 29.0331L106.197 27.7349ZM102.798 33.2926C102.009 35.2646 101.574 36.9903 101.574 38.432H103.574C103.574 37.3564 103.907 35.9034 104.654 34.0354L102.798 33.2926ZM101.574 38.432C101.574 40.7098 101.978 42.5876 103.057 43.7518L104.523 42.3922C103.981 41.8071 103.574 40.5915 103.574 38.432H101.574ZM103.032 42.4195C102.509 43.0266 102.031 43.224 101.582 43.224V45.224C102.754 45.224 103.748 44.6534 104.548 43.7245L103.032 42.4195ZM115.739 25.056L116.383 25.8217L116.391 25.8143L116.4 25.8067L115.739 25.056ZM115.707 28.992L114.948 29.6428L114.955 29.6505L114.962 29.658L115.707 28.992ZM118.396 31.424L117.764 32.1997L117.764 32.1997L118.396 31.424ZM120.731 33.344L120.081 34.1033L120.088 34.1094L120.095 34.1154L120.731 33.344ZM121.436 42.752L122.103 43.4966L122.103 43.4966L121.436 42.752ZM111.867 43.456L111.363 44.3192L111.372 44.3248L111.382 44.3302L111.867 43.456ZM111.707 37.76L112.681 37.5302L112.269 35.7847L111 37.0529L111.707 37.76ZM113.659 41.216L113.026 41.99L113.036 41.9978L113.046 42.0054L113.659 41.216ZM119.195 41.568L118.595 40.768L118.589 40.7726L118.583 40.7773L119.195 41.568ZM119.804 37.856L118.946 38.3705L118.961 38.3961L118.978 38.4207L119.804 37.856ZM119.195 36.928L118.376 37.5015L118.391 37.5221L118.406 37.5419L119.195 36.928ZM118.332 36.064L117.663 36.8073L117.673 36.8168L117.684 36.8259L118.332 36.064ZM117.339 35.232L116.671 35.9753L116.709 36.0101L116.751 36.0407L117.339 35.232ZM116.059 34.208L115.435 34.9889L115.443 34.9953L115.451 35.0016L116.059 34.208ZM114.619 33.056L115.244 32.2751L115.236 32.2687L114.619 33.056ZM113.947 23.648L114.552 24.4449L114.56 24.4387L113.947 23.648ZM122.236 27.648L121.31 28.0256L121.809 29.2513L122.852 28.4355L122.236 27.648ZM117.884 23.352C116.81 23.352 115.839 23.6367 115.079 24.3053L116.4 25.8067C116.707 25.5367 117.165 25.352 117.884 25.352V23.352ZM115.096 24.2903C114.305 24.955 113.939 25.8714 113.939 26.912H115.939C115.939 26.3739 116.107 26.053 116.383 25.8217L115.096 24.2903ZM113.939 26.912C113.939 27.9392 114.28 28.8636 114.948 29.6428L116.467 28.3412C116.111 27.9258 115.939 27.4635 115.939 26.912H113.939ZM114.962 29.658C115.55 30.3173 116.497 31.1689 117.764 32.1997L119.027 30.6483C117.776 29.6311 116.931 28.8614 116.453 28.326L114.962 29.658ZM117.764 32.1997C119.027 33.2269 119.794 33.8575 120.081 34.1033L121.382 32.5847C121.072 32.3185 120.281 31.6691 119.027 30.6483L117.764 32.1997ZM120.095 34.1154C121.617 35.3711 122.292 36.7477 122.292 38.272H124.292C124.292 36.0416 123.259 34.1329 121.368 32.5726L120.095 34.1154ZM122.292 38.272C122.292 39.9061 121.765 41.1135 120.768 42.0074L122.103 43.4966C123.581 42.1719 124.292 40.3926 124.292 38.272H122.292ZM120.768 42.0074C119.773 42.8995 118.284 43.416 116.155 43.416V45.416C118.592 45.416 120.623 44.8232 122.103 43.4966L120.768 42.0074ZM116.155 43.416C114.57 43.416 113.319 43.1185 112.353 42.5818L111.382 44.3302C112.72 45.0735 114.328 45.416 116.155 45.416V43.416ZM112.372 42.5928C111.526 42.098 111.171 41.4653 111.171 40.608H109.171C109.171 42.2253 109.947 43.4914 111.363 44.3192L112.372 42.5928ZM111.171 40.608C111.171 40.1273 111.462 39.4202 112.415 38.4671L111 37.0529C109.905 38.1478 109.171 39.3394 109.171 40.608H111.171ZM110.734 37.9898C111.132 39.6749 111.872 41.0459 113.026 41.99L114.293 40.442C113.569 39.8501 113.008 38.9171 112.681 37.5302L110.734 37.9898ZM113.046 42.0054C114.147 42.862 115.349 43.336 116.635 43.336V41.336C115.874 41.336 115.092 41.0633 114.273 40.4266L113.046 42.0054ZM116.635 43.336C117.846 43.336 118.931 43.0373 119.808 42.3587L118.583 40.7773C118.137 41.1227 117.516 41.336 116.635 41.336V43.336ZM119.795 42.368C120.722 41.6728 121.219 40.7081 121.219 39.552H119.219C119.219 40.0599 119.034 40.4392 118.595 40.768L119.795 42.368ZM121.219 39.552C121.219 38.7161 121.062 37.9249 120.629 37.2913L118.978 38.4207C119.099 38.5978 119.219 38.9372 119.219 39.552H121.219ZM120.661 37.3415C120.401 36.9082 120.173 36.5559 119.985 36.3141L118.406 37.5419C118.517 37.6841 118.694 37.9505 118.946 38.3705L120.661 37.3415ZM120.015 36.3545C119.787 36.0291 119.414 35.6717 118.979 35.3021L117.684 36.8259C118.102 37.1816 118.305 37.4002 118.376 37.5015L120.015 36.3545ZM119 35.3207C118.568 34.9313 118.206 34.6255 117.928 34.4233L116.751 36.0407C116.943 36.1798 117.242 36.4287 117.663 36.8073L119 35.3207ZM118.008 34.4887C117.761 34.2664 117.304 33.9022 116.668 33.4144L115.451 35.0016C116.095 35.4951 116.491 35.8136 116.671 35.9753L118.008 34.4887ZM116.684 33.4271C116.661 33.4088 116.47 33.2554 116.452 33.2411C116.387 33.189 116.294 33.1152 116.234 33.0671C116.193 33.0342 116.068 32.934 116.032 32.9051C115.986 32.8682 115.981 32.8646 115.936 32.8286C115.882 32.7858 115.897 32.797 115.844 32.7551C115.835 32.7482 115.808 32.7262 115.8 32.7195C115.791 32.7127 115.764 32.6911 115.756 32.6846C115.739 32.6713 115.687 32.6295 115.672 32.6171C115.639 32.5911 115.542 32.5131 115.514 32.4911C115.452 32.4416 115.286 32.3087 115.244 32.2751L113.995 33.8369C114.006 33.846 114.106 33.9257 114.122 33.9389C114.132 33.9463 114.25 34.0414 114.265 34.0529C114.293 34.0757 114.312 34.0905 114.342 34.1144C114.348 34.1196 114.414 34.1726 114.422 34.1789C114.454 34.204 114.558 34.2877 114.595 34.3169C114.775 34.4608 114.785 34.4689 114.985 34.6289C114.991 34.6339 114.992 34.6344 114.998 34.6394C114.999 34.6404 115.003 34.6437 115.005 34.6447C115.006 34.6456 115.007 34.6464 115.008 34.6473C115.009 34.6482 115.01 34.6491 115.011 34.65C115.014 34.6525 115.015 34.6527 115.018 34.6553C115.019 34.6561 115.02 34.657 115.021 34.6579C115.022 34.6588 115.023 34.6597 115.024 34.6606C115.026 34.6615 115.027 34.6624 115.028 34.6632C115.029 34.6641 115.03 34.665 115.031 34.6659C115.031 34.6659 115.038 34.6712 115.038 34.6712C115.039 34.6721 115.04 34.673 115.041 34.6739C115.042 34.6748 115.043 34.6757 115.044 34.6766C115.046 34.6775 115.047 34.6784 115.048 34.6793C115.049 34.6802 115.05 34.6811 115.051 34.682C115.054 34.6845 115.055 34.6848 115.058 34.6873C115.06 34.6889 115.063 34.6912 115.065 34.6927C115.068 34.6958 115.074 34.7004 115.078 34.7035C115.082 34.7066 115.088 34.7113 115.092 34.7144C115.154 34.7642 115.139 34.7521 115.202 34.8029C115.257 34.8462 115.261 34.85 115.317 34.8944C115.339 34.9121 115.353 34.9233 115.375 34.9412C115.386 34.9501 115.423 34.9797 115.435 34.9889L116.684 33.4271ZM115.236 32.2687C113.664 31.0377 112.963 29.6469 112.963 28.064H110.963C110.963 30.3638 112.033 32.301 114.003 33.8433L115.236 32.2687ZM112.963 28.064C112.963 26.3756 113.523 25.225 114.552 24.4449L113.343 22.8511C111.727 24.0764 110.963 25.8698 110.963 28.064H112.963ZM114.56 24.4387C115.652 23.5934 117.223 23.112 119.387 23.112V21.112C116.944 21.112 114.889 21.6546 113.335 22.8573L114.56 24.4387ZM119.387 23.112C120.744 23.112 121.584 23.3512 122.06 23.6795C122.47 23.9615 122.708 24.3735 122.708 25.088H124.708C124.708 23.8185 124.225 22.7425 123.195 22.0325C122.231 21.3688 120.911 21.112 119.387 21.112V23.112ZM122.708 25.088C122.708 25.6248 122.444 26.2151 121.619 26.8605L122.852 28.4355C123.99 27.5449 124.708 26.4285 124.708 25.088H122.708ZM123.161 27.2704C122.666 26.0549 121.985 25.0648 121.079 24.3788C120.162 23.6844 119.081 23.352 117.884 23.352V25.352C118.692 25.352 119.338 25.5689 119.872 25.9732C120.417 26.3859 120.909 27.0438 121.31 28.0256L123.161 27.2704Z" fill="#7A6500" mask="url(#path-1-outside-1_41_12)"/>
<path d="M86.318 28.6729L86.3182 28.673L97.3242 37.735L97.3242 37.7351C97.6857 38.0326 97.4753 38.621 97.006 38.621H91.414C91.414 38.621 91.414 38.621 91.414 38.621C91.1272 38.621 90.8438 38.6827 90.5829 38.8018C90.322 38.921 90.0898 39.0949 89.902 39.3117L89.9019 39.3119L86.378 43.3848C86.075 43.7348 85.5 43.521 85.5 43.057V29.059L85.5 29.0589C85.5 28.9641 85.5269 28.8712 85.5776 28.7911C85.6284 28.711 85.7009 28.647 85.7866 28.6065C85.8724 28.5661 85.9679 28.5508 86.0619 28.5626C86.156 28.5743 86.2448 28.6126 86.318 28.6729Z" fill="#212121" stroke="#1A1A1A"/>
<path fill-rule="evenodd" clip-rule="evenodd" d="M84.6 22H76V45H84.6V46H76H75V45V22V21H76H84.6V22ZM99 22H98V45H99V22Z" fill="#00A3FF" fill-opacity="0.78"/>
<path fill-rule="evenodd" clip-rule="evenodd" d="M89.4 22H98V45H89.4V46H98H99V45V22V21H98H89.4V22ZM75 22H76V45H75V22Z" fill="#00A3FF" fill-opacity="0.78"/>
</svg>
